<svg width="36" height="36" viewBox="0 0 36 36" fill="none" xmlns="http://www.w3.org/2000/svg">
<path fill-rule="evenodd" clip-rule="evenodd" d="M35.1431 18.0003C35.1431 27.468 27.468 35.1431 18.0003 35.1431C8.53254 35.1431 0.857422 27.468 0.857422 18.0003C0.857422 8.53254 8.53254 0.857422 18.0003 0.857422C27.468 0.857422 35.1431 8.53254 35.1431 18.0003ZM18.6133 13.5143C16.9459 14.2078 13.6135 15.6433 8.61601 17.8206C7.8045 18.1433 7.37939 18.459 7.34069 18.7677C7.27529 19.2894 7.92862 19.4949 8.81828 19.7746C8.93929 19.8127 9.06468 19.8521 9.19322 19.8939C10.0685 20.1784 11.2459 20.5112 11.858 20.5245C12.4132 20.5365 13.0329 20.3076 13.7171 19.8378C18.3864 16.6859 20.7967 15.0927 20.948 15.0584C21.0548 15.0341 21.2027 15.0037 21.303 15.0928C21.4032 15.1819 21.3934 15.3506 21.3827 15.3959C21.318 15.6718 18.7535 18.056 17.4264 19.2898C17.0126 19.6745 16.7191 19.9473 16.6591 20.0096C16.5247 20.1492 16.3878 20.2812 16.2561 20.4081C15.443 21.192 14.8332 21.7799 16.2899 22.7398C16.9899 23.2011 17.5501 23.5826 18.1089 23.9632C18.7193 24.3788 19.328 24.7934 20.1156 25.3097C20.3163 25.4412 20.5079 25.5778 20.6946 25.7109C21.4048 26.2172 22.043 26.6722 22.8313 26.5996C23.2894 26.5575 23.7625 26.1267 24.0028 24.8421C24.5708 21.8061 25.6871 15.2279 25.9451 12.5172C25.9677 12.2798 25.9392 11.9758 25.9164 11.8424C25.8936 11.709 25.8458 11.5189 25.6724 11.3781C25.467 11.2115 25.1499 11.1763 25.0081 11.1788C24.3633 11.1902 23.3741 11.5342 18.6133 13.5143Z" fill="white"/>
</svg>
